<?xml version="1.0" encoding="UTF-8"?>
<svg id="Layer_2" data-name="Layer 2" xmlns="http://www.w3.org/2000/svg" viewBox="0 0 363.65 189.69">
  <g id="Layer_1-2" data-name="Layer 1">
    <g id="Toe_Knee_-_Whispy" data-name="Toe Knee - Whispy">
      <path d="M100.75,7.68h1.15v6.66h-1.15v-6.66ZM102.54,7.68h1.15v6.66h-1.15v-6.66ZM104.2,7.81h3.2v6.66h-3.2v-6.66ZM107.79,7.81h1.28v6.66h-1.28v-6.66ZM109.96,7.81h.51v6.66h-.51v-6.66ZM110.99,7.81v6.66-6.66ZM112.14,7.81h1.15v6.66h-1.15v-6.66ZM113.93,7.81h1.15v6.66h-1.15v-6.66ZM115.59,7.94h3.33v6.66h-3.33v-6.66ZM119.31,7.94h1.15v6.66h-1.15v-6.66ZM121.48,7.94h.51v6.66h-.51v-6.66ZM122.51,7.94v6.66-6.66ZM123.53,7.94h1.28v6.66h-1.28v-6.66ZM125.45,7.94h1.02v6.66h-1.02v-6.66ZM126.99,8.06h3.33v6.66h-3.33v-6.66ZM130.7,8.06h1.28v6.66h-1.28v-6.66ZM132.88,8.06h.51v6.66h-.51v-6.66ZM133.51,4.35h3.33v3.84h-3.33v-3.84ZM133.9,8.06v6.66-6.66ZM138.12,4.35h1.28v3.84h-1.28v-3.84ZM140.43,4.35h1.79v3.84h-1.79v-3.84ZM142.99,4.35h3.46v3.84h-3.46v-3.84ZM147.72,4.35h1.28v3.84h-1.28v-3.84ZM150.03,4.35h1.79v3.84h-1.79v-3.84ZM153.1,4.35h5.63v3.84h-5.63v-3.84ZM161.16,4.35h2.3v3.84h-2.3v-3.84ZM165.26,4.35h2.18V0h1.66v4.48h-.77v3.71h-3.07v-3.84ZM169.87,0h.64v4.48h-.64V0ZM171.02,0h.9v4.48h-.9V0ZM172.43,0h1.66v4.48h-1.66V0ZM174.86,0h.64v4.48h-.64V0ZM176.01,0h.9v4.48h-.9V0ZM177.68,0h2.94v4.48h-2.94V0ZM181.9,0h1.15v4.48h-1.15V0ZM183.95,0h1.66v4.48h-1.66V0ZM187.66,0h1.28v4.48h-1.28V0ZM189.2,0h1.41v4.48h-1.41V0ZM190.86,4.48h.13V0h.77v4.48h.9v3.84h-1.79v-3.84ZM194.19,4.48h2.56v3.84h-2.56v-3.84ZM196.75,8.32v-3.84,3.84ZM197.13,4.48h3.07v3.84h-3.07v-3.84ZM201.23,4.48h1.41v3.71h1.66v6.4h-1.66v-6.27h-1.41v-3.84ZM204.94,8.19h.77v6.4h-.77v-6.4ZM206.09,8.19h.9v6.4h-.9v-6.4ZM208.27,8.19h.77v6.4h-.77v-6.4ZM209.29,8.19h.51v6.4h-.51v-6.4ZM210.19,8.19h.51v6.4h-.51v-6.4ZM211.09,8.19v6.4-6.4ZM211.34,4.35h.51v3.71h-.51v-3.71ZM212.62,4.35h.51v3.71h-.51v-3.71ZM213.52,4.35h.51v3.71h-.51v-3.71ZM214.03,8.06h.38v-3.71h1.15v3.71h.38v6.66h-1.92v-6.66ZM261.39,60.93v18.3h-1.54v10.62h2.56v7.55h-1.02v15.74h-8.06v-15.74h-2.05v15.74h-3.07v-15.74h1.79v-7.55h1.28v-10.5h-1.92v-18.43h-1.15v-6.66c.13-9.86,4.22-21.89,2.82-25.35-1.41-3.71-6.02-3.71-7.68-3.71-.51,18.82-9.98,18.05-28.67,18.05v-1.41c13.06,0,11.65-8.19,11.65-18.18h.77v-1.02h-.26v-4.1h.38v-3.97h-.38v-6.66h1.15v6.66h-.13v3.97h.26v-3.97h.77v4.1h-.51v3.97h.38v1.02l39.43.13v-.13c19.2,0,28.67-.77,28.67,19.46l-17.03.13c0-9.34,1.28-17.15-9.34-18.05h-16.77c11.27,3.58,15.36,13.7,15.36,29.7h-.13v6.02h1.41v18.3h-1.15v10.62h1.92v7.55h-2.18v15.74h-1.92v-15.74h1.15v-7.55h-1.79v-10.62h-1.54v-18.3h-1.66v-6.02h-5.25v6.02h3.46ZM216.59,8.06h1.02v6.66h-1.02v-6.66ZM218.13,8.06h.51v6.66h-.51v-6.66ZM219.66,8.06h1.15v6.66h-1.15v-6.66ZM221.33,8.06h3.2v6.66h-3.2v-6.66ZM225.04,7.94h1.15v6.66h-1.15v-6.66ZM227.73,22.66v1.02h.38v-1.02h-.38v-3.97h-.38v3.97h.38ZM252.3,60.93v-6.02h-2.3v6.02h2.3ZM255.89,89.86v7.55h1.41v-7.55h-1.02v-10.62h1.66v-18.3h-3.2v18.43h-.64v10.5h1.79Z"/>
      <path d="M276.19,89.29c0-15.65,4.9-24,19.29-24v1.06c-1.25,0-4.7,0-5.76,2.88-1.06,2.78,2.11,12.38,2.11,20.06s-3.17,17.28-2.11,20.06c1.06,2.88,4.51,2.88,5.76,2.88,9.12,0,8.83-5.38,8.74-12.19v-6.72h.1v-6.62h-.77v-6.14h1.63v-1.06c-6.53-.96-9.7-4.03-9.7-14.21l12.77-.1c0,6.53-.77,12.09,5.47,13.34h2.02v.29h1.25v1.06h-1.25v.67h.48v6.05h.1v6.62h.58v5.47h.1c0,15.17-7.1,14.59-21.5,14.59s-19.29-8.35-19.29-24ZM306.91,98.6v-5.28h-1.92v5.28h1.92ZM306.91,86.7v-6.14h-1.34v6.14h1.34ZM309.12,93.22v-6.53h-.96v6.53h.96ZM309.12,80.55v-.77h-.86v.77h.86ZM313.25,98.69v-5.47h-1.15v-6.62h-.77v-6.05h.48v-.67h-.77v.67h-.77v6.05h.77v6.62h-.86v5.38l3.07.1ZM314.3,86.6v-6.05h-1.06v6.05h1.06Z"/>
      <path d="M339.3,113.29c-14.3,0-19.2-8.35-19.2-24s4.9-24,19.2-24l12.77-.1c0,7.49-1.06,13.63,8.74,13.63v1.82h-25.92c.48,2.88.86,5.86.86,8.64,0,7.68-3.17,17.28-2.11,20.06,1.06,2.88,4.42,2.88,5.76,2.88,1.25,0,4.61,0,5.66-2.78,1.06-2.69-2.11-12-2.11-19.49h15.65c0,15.17-4.9,23.33-19.2,23.33h-.1ZM334.59,79.11h12.38c-4.9-1.25-7.49-4.42-7.68-12.77-1.34,0-4.61.1-5.66,2.88-.58,1.63.19,5.47.96,9.89Z"/>
      <path d="M0,51.18h3.58v2.69H0v-2.69ZM5.63,51.18h3.2v2.69h-3.2v-2.69ZM11.52,51.18h7.17v2.69h-7.17v-2.69ZM21.63,51.18h8.45v2.69h-8.45v-2.69ZM32.13,51.18h1.92v2.69h4.22v2.82h-5.63v-2.82h-.51v-2.69ZM36.99,53.87v-2.69,2.69ZM39.55,53.87h1.41v2.82h-1.41v-2.82ZM41.09,56.69h3.58v1.66h-3.58v-1.66ZM42.88,56.69v-2.82,2.82ZM42.88,56.69v-2.82,2.82ZM46.08,56.69h3.97v1.66h-3.97v-1.66ZM50.56,58.1h.51v-1.41h.9v1.41h.51v3.58h-1.92v-3.58ZM53.25,58.1h2.18v3.58h-2.18v-3.58ZM57.22,61.68l-3.84-3.33v-1.66l3.84,4.99ZM53.38,58.35v-1.66,1.66ZM53.89,61.68v3.58-3.58ZM55.94,58.1h.51v3.58h1.28v3.58h-1.54v-3.58h-.26v-3.58ZM57.22,61.68v-3.58,3.58ZM58.63,61.68h1.41v3.58h-1.41v-3.58ZM61.19,61.68h3.2v3.58h-3.2v-3.58ZM65.28,65.14v5.38-5.38ZM65.67,61.68h3.71v3.58h-.38v5.25h-2.05v-5.25h-1.28v-3.58ZM69.51,65.14h.51v5.38h-.51v-5.38ZM70.15,61.68h.9v3.46h2.94v5.38h-.13v2.69h-.77v-2.69h-.64v2.69h-.77v-2.69h-.77v-5.25h-.77v-3.58ZM70.92,70.38v2.82-2.82ZM72.32,65.26v-3.58,3.58ZM72.32,65.26v-3.58,3.58ZM74.37,70.51v-5.38,5.38ZM74.37,70.38h1.15v2.82h-1.15v-2.82ZM77.7,70.38h1.41v2.82h-1.41v-2.82ZM79.88,70.38h1.28v2.82h-1.28v-2.82ZM82.18,70.38h2.82v2.82h-2.82v-2.82ZM86.15,70.38h3.33v2.82h-3.33v-2.82ZM90.24,70.38h.77v2.82h-.77v-2.82ZM92.17,70.38h4.61v2.82h-4.61v-2.82ZM96.9,73.07h.38v2.82h-.38v-2.82ZM97.41,73.07h.64v2.82h-.64v-2.82ZM98.44,73.07h.9v2.82h-.9v-2.82ZM99.46,70.38h3.07v2.69h.9v2.82h-1.02v-2.69h-1.02v2.69h-.38v-2.69h-.38v2.69h-.26v-2.69h-.51v2.69h-.38v-5.5ZM103.68,73.07h.64v2.82h-.64v-2.82ZM104.84,73.07h.51v2.82h-.51v-2.82ZM105.86,73.07h1.79v2.82h-1.79v-2.82ZM108.17,73.07h.51v2.82h-.51v-2.82ZM109.19,73.07h1.54v-2.69h2.69v-2.82h.51v2.82h.26v-2.82h.51v2.82h.9v-2.82h8.71v2.82h-7.81v2.69h-5.38v2.82h-1.92v-2.82ZM124.81,67.57h.51v2.82h-.51v-2.82ZM125.7,67.57h.51v2.82h-.51v-2.82ZM126.6,67.57h.77v2.82h-.77v-2.82ZM128.77,67.57h.9v2.82h-.9v-2.82ZM130.18,67.57h.9v2.82h-.9v-2.82ZM131.72,67.57h1.92v2.82h-1.92v-2.82ZM134.41,67.57h2.18v2.82h-2.18v-2.82ZM137.09,67.57h.51v2.82h-.51v-2.82ZM138.37,67.57h3.07v2.82h-3.07v-2.82ZM138.37,70.38v-2.82,2.82ZM143.24,67.57h2.05v2.82h-2.05v-2.82ZM147.21,67.57h1.28v-4.86h.9v4.86h.51v-4.86h1.92v4.99h-1.02v2.69h-3.58v-2.82ZM152.71,62.7h.77v7.68h-.77v-7.68ZM154.25,62.7h1.79v4.99h-1.79v-4.99ZM156.94,62.7h5.38v4.99h-5.38v-4.99ZM164.62,62.7h3.07v4.99h-3.07v-4.99ZM168.71,62.7h1.92v4.99h-1.92v-4.99ZM171.53,62.7h.51v-2.82h2.05v2.82h-1.66v4.99h-.9v-4.99ZM206.22,158.58c0-9.98,4.22-22.4,2.82-25.98-1.28-3.33-4.99-3.71-7.04-3.71v5.38h-1.79v14.08c-.13,19.97-9.6,19.2-28.67,19.2v-1.41c12.93,0,11.65-7.94,11.65-17.79h-.13v-14.08h1.54v-6.91h1.15v-9.34h-1.66v-16.64h-1.02v-4.48h-.26v-1.41c13.06,0,11.65-8.19,11.65-18.18l11.78.13v-4.74h-.9v-4.99h-1.02v-4.99h1.92v4.99h.77v-4.99h.9v4.99h-.64v4.74h.77v-4.74h5.38v4.99h-2.43v4.74h.51v.13c0,12.54-3.71,17.02-11.26,18.56v5.25h1.15v16.51h-1.02v9.47l1.66.13c12.42-.26,11.01-8.32,11.01-18.18l17.02.13c0,16.26-6.14,18.94-18.43,19.33,11.39,3.58,15.49,13.7,15.49,29.83,0,9.98-4.22,22.4-2.82,25.99,1.41,3.71,6.02,3.71,7.68,3.71v1.41c-19.2,0-25.73-10.88-25.73-31.11ZM174.6,59.89h.51v2.82h-.51v-2.82ZM176.01,59.89h3.07v2.82h-3.07v-2.82ZM180.75,59.89h2.05v2.82h-2.05v-2.82ZM183.3,59.89h.51v2.82h-.51v-2.82ZM186.5,101.36v-4.48h-1.92v4.48h1.92ZM184.71,59.89h3.07v2.82h-3.07v-2.82ZM187.27,147.96v-13.7h-1.54v13.7h1.54ZM189.45,127.35v6.91h1.15v-6.91h-.9v-9.47h1.41v-16.51h2.82v16.51h-1.28v9.47h2.18v6.91h-.9v13.82h4.61v-13.82h1.02v-6.91h-1.54v-9.47h-1.28v-16.51h-1.28v-4.74c-1.41.13-2.82.26-4.35.26v4.48h-2.69v16.64h-.51v9.34h1.54ZM188.17,59.89h1.66v2.82h-1.66v-2.82ZM190.22,59.89h.64v-1.66h.51v1.66h-.26v2.94h-.9v-2.94ZM191.88,58.22h.51v1.66h-.51v-1.66ZM192.78,58.22h1.54v1.66h.26v2.82h-.51v-2.82h-1.28v-1.66ZM194.83,59.89h.51v2.82h-.51v-2.82ZM195.72,59.89h.9v2.82h-.9v-2.82ZM197.9,59.89h.9v2.82h-.9v-2.82ZM199.31,59.89h.9v2.82h-.9v-2.82ZM200.2,62.7h.64v-2.82h1.92v2.82h.51v4.99h-3.07v-4.99ZM209.03,77.42v-4.74h-1.02v4.74h1.02Z"/>
      <path d="M242.87,167.29v-16.8h-.38v16.7h-.77v-16.7h-.58v-7.1h-1.15v7.01h-.86v16.8h-4.03v-16.8h2.69v-7.01h-2.69v-24.19h11.81c2.21-.77,4.9-1.15,8.06-1.15,12.77,0,17.95,6.43,19.01,18.53.1,1.44.19,2.98.19,4.61v9.31h-3.17v2.59h3.46c0,7.49-1.06,13.63,8.74,13.63v1.06c-14.4,0-21.5.58-21.5-14.59h-1.63v-2.78h-1.54v-9.02c0-6.05,2.02-13.25,2.3-17.28v-1.25c0-.38-.1-.67-.19-.96-1.06-2.78-4.42-2.78-5.66-2.78-1.34,0-4.7,0-5.76,2.78-1.06,2.59,1.92,11.33,2.11,18.72v9.98h-.58v16.7h-1.82v-16.7h-1.15v-7.2h-2.78v7.1h.58v16.8h-2.69ZM263.8,153.17v-2.78h-1.54v2.78h1.54ZM266.29,150.39v-9.02h-1.06v9.02h1.06ZM268.79,153.08v-2.59h.86v-9.12h-1.15v9.12h-.86v2.69l1.15-.1Z"/>
      <path d="M298.6,167.29c-14.3,0-19.2-8.35-19.2-24s4.89-24,19.2-24l12.77-.1c0,7.49-1.06,13.63,8.74,13.63v1.82h-25.92c.48,2.88.86,5.86.86,8.64,0,7.68-3.17,17.28-2.11,20.06,1.06,2.88,4.42,2.88,5.76,2.88,1.25,0,4.61,0,5.66-2.78,1.06-2.69-2.11-12-2.11-19.49h15.65c0,15.17-4.9,23.33-19.2,23.33h-.1ZM293.9,133.11h12.38c-4.89-1.25-7.49-4.42-7.68-12.77-1.34,0-4.61.1-5.66,2.88-.58,1.63.19,5.47.96,9.89Z"/>
      <path d="M342.15,167.29c-14.3,0-19.2-8.35-19.2-24s4.89-24,19.2-24l12.77-.1c0,7.49-1.06,13.63,8.74,13.63v1.82h-25.92c.48,2.88.86,5.86.86,8.64,0,7.68-3.17,17.28-2.11,20.06,1.06,2.88,4.42,2.88,5.76,2.88,1.25,0,4.61,0,5.66-2.78,1.06-2.69-2.11-12-2.11-19.49h15.65c0,15.17-4.9,23.33-19.2,23.33h-.1ZM337.44,133.11h12.38c-4.89-1.25-7.49-4.42-7.68-12.77-1.34,0-4.61.1-5.66,2.88-.58,1.63.19,5.47.96,9.89Z"/>
    </g>
  </g>
</svg>